<svg width="24" height="24" viewBox="0 0 12 10" fill="none" xmlns="http://www.w3.org/2000/svg">
<path d="M3.22222 3.33344H8.77778M3.22222 5.55566H6M11 9.44455L9.15317 8.52111C9.01317 8.45111 8.94317 8.41611 8.86978 8.39144C8.80467 8.36955 8.73761 8.35372 8.66956 8.34416C8.59289 8.33344 8.51461 8.33344 8.35811 8.33344H2.77778C2.15549 8.33344 1.84436 8.33344 1.60668 8.21233C1.39761 8.10583 1.22763 7.93583 1.12111 7.72677C1 7.48911 1 7.17794 1 6.55566V2.33344C1 1.71116 1 1.40002 1.12111 1.16234C1.22763 0.95327 1.39761 0.783292 1.60668 0.67677C1.84436 0.555664 2.1555 0.555664 2.77778 0.555664H9.22222C9.8445 0.555664 10.1557 0.555664 10.3933 0.67677C10.6024 0.783292 10.7724 0.95327 10.8789 1.16234C11 1.40002 11 1.71116 11 2.33344V9.44455Z" stroke="#50534F" stroke-linecap="round" stroke-linejoin="round"/>
</svg>
