<svg width="24" height="24" viewBox="0 0 24 24" fill="none" xmlns="http://www.w3.org/2000/svg">
<path d="M12.4473 1.10557C12.1657 0.96481 11.8344 0.96481 11.5528 1.10557L1.55279 6.10557C1.21401 6.27496 1 6.62123 1 7C1 7.37877 1.21401 7.72504 1.55279 7.89443L11.5528 12.8944C11.8344 13.0352 12.1657 13.0352 12.4473 12.8944L22.4473 7.89443C22.786 7.72504 23 7.37877 23 7C23 6.62123 22.786 6.27496 22.4473 6.10557L12.4473 1.10557Z" fill="#464646"/>
<path d="M1.10579 16.553C1.35278 16.059 1.95345 15.8588 2.44743 16.1057L12.0002 20.8821L21.553 16.1057C22.047 15.8588 22.6477 16.059 22.8946 16.553C23.1416 17.0469 22.9414 17.6476 22.4474 17.8946L12.4474 22.8946C12.1659 23.0354 11.8345 23.0354 11.553 22.8946L1.55301 17.8946C1.05903 17.6476 0.858803 17.0469 1.10579 16.553Z" fill="#464646"/>
<path d="M2.44743 11.1057C1.95345 10.8588 1.35278 11.059 1.10579 11.553C0.858803 12.0469 1.05903 12.6476 1.55301 12.8946L11.553 17.8946C11.8345 18.0354 12.1659 18.0354 12.4474 17.8946L22.4474 12.8946C22.9414 12.6476 23.1416 12.0469 22.8946 11.553C22.6477 11.059 22.047 10.8588 21.553 11.1057L12.0002 15.8821L2.44743 11.1057Z" fill="#464646"/>
</svg>
