<svg width="24" height="24" viewBox="0 0 24 24" fill="none" xmlns="http://www.w3.org/2000/svg">
    <path d="M3 18L3.11662 18.0067C3.5757 18.06 3.93995 18.4243 3.99327 18.8834L4 19V20H5L5.11662 20.0067C5.61396 20.0645 6 20.4872 6 21C6 21.5128 5.61396 21.9355 5.11662 21.9933L5 22H3L2.88338 21.9933C2.4243 21.9399 2.06005 21.5757 2.00673 21.1166L2 21V19L2.00673 18.8834C2.06005 18.4243 2.4243 18.06 2.88338 18.0067L3 18ZM21 18L21.1166 18.0067C21.5374 18.0556 21.8786 18.3657 21.9736 18.7707L21.9933 18.8834L22 19V21L21.9933 21.1166C21.9444 21.5374 21.6342 21.8786 21.2293 21.9736L21.1166 21.9933L21 22H19L18.8834 21.9933C18.386 21.9355 18 21.5128 18 21C18 20.5266 18.3289 20.1301 18.7707 20.0264L18.8834 20.0067L19 20H20V19L20.0067 18.8834C20.0556 18.4626 20.3657 18.1214 20.7707 18.0264L20.8834 18.0067L21 18ZM13 20C13.5523 20 14 20.4477 14 21C14 21.5523 13.5523 22 13 22H11C10.4477 22 10 21.5523 10 21C10 20.4477 10.4477 20 11 20H13ZM3 10C3.55228 10 4 10.4477 4 11V13C4 13.5523 3.55228 14 3 14C2.44772 14 2 13.5523 2 13V11C2 10.4477 2.44772 10 3 10ZM21 10C21.5523 10 22 10.4477 22 11V13C22 13.5523 21.5523 14 21 14C20.4477 14 20 13.5523 20 13V11C20 10.4477 20.4477 10 21 10ZM21 2L21.1166 2.00673C21.5757 2.06005 21.9399 2.4243 21.9933 2.88338L22 3V5L21.9933 5.11662C21.9399 5.5757 21.5757 5.93995 21.1166 5.99327L21 6L20.8834 5.99327C20.4243 5.93995 20.06 5.5757 20.0067 5.11662L20 5V4H19L18.8834 3.99327C18.386 3.93551 18 3.51284 18 3C18 2.48716 18.386 2.06449 18.8834 2.00673L19 2H21ZM5 2L5.11662 2.00673C5.61396 2.06449 6 2.48716 6 3C6 3.47339 5.67107 3.86995 5.22929 3.97359L5.11662 3.99327L5 4H4V5L3.99327 5.11662C3.94439 5.53745 3.63425 5.87858 3.22929 5.97359L3.11662 5.99327L3 6L2.88338 5.99327C2.46255 5.94439 2.12142 5.63425 2.02641 5.22929L2.00673 5.11662L2 5V3L2.00673 2.88338C2.05561 2.46255 2.36575 2.12142 2.77071 2.02641L2.88338 2.00673L3 2H5ZM15 6C16.5977 6 17.9037 7.24892 17.9949 8.82373L18 9V15C18 16.5977 16.7511 17.9037 15.1763 17.9949L15 18H9C7.40232 18 6.09634 16.7511 6.00509 15.1763L6 15V9C6 7.40232 7.24892 6.09634 8.82373 6.00509L9 6H15ZM15 8H9C8.48716 8 8.06449 8.38604 8.00673 8.88338L8 9V15C8 15.5128 8.38604 15.9355 8.88338 15.9933L9 16H15C15.5128 16 15.9355 15.614 15.9933 15.1166L16 15V9C16 8.48716 15.614 8.06449 15.1166 8.00673L15 8ZM13 2C13.5523 2 14 2.44772 14 3C14 3.55228 13.5523 4 13 4H11C10.4477 4 10 3.55228 10 3C10 2.44772 10.4477 2 11 2H13Z"
          fill="currentColor"/>
</svg>
